<?xml version="1.0" encoding="UTF-8" standalone="no"?>
<!-- Created with Inkscape (http://www.inkscape.org/) -->

<svg
   width="512"
   height="512"
   viewBox="0 0 135.46666 135.46667"
   version="1.1"
   id="svg1"
   xml:space="preserve"
   sodipodi:docname="U.svg"
   inkscape:version="1.4.2 (ebf0e94, 2025-05-08)"
   xmlns:inkscape="http://www.inkscape.org/namespaces/inkscape"
   xmlns:sodipodi="http://sodipodi.sourceforge.net/DTD/sodipodi-0.dtd"
   xmlns:xlink="http://www.w3.org/1999/xlink"
   xmlns="http://www.w3.org/2000/svg"
   xmlns:svg="http://www.w3.org/2000/svg"><sodipodi:namedview
     id="namedview1"
     pagecolor="#ffffff"
     bordercolor="#000000"
     borderopacity="0.25"
     inkscape:showpageshadow="2"
     inkscape:pageopacity="0.0"
     inkscape:pagecheckerboard="0"
     inkscape:deskcolor="#d1d1d1"
     inkscape:document-units="mm"
     showgrid="false"
     inkscape:lockguides="true"
     inkscape:zoom="0.50898197"
     inkscape:cx="244.60591"
     inkscape:cy="483.31771"
     inkscape:window-width="2544"
     inkscape:window-height="933"
     inkscape:window-x="50"
     inkscape:window-y="42"
     inkscape:window-maximized="0"
     inkscape:current-layer="g20"><inkscape:grid
       id="grid15"
       units="mm"
       originx="0"
       originy="0"
       spacingx="0.99999995"
       spacingy="1"
       empcolor="#0099e5"
       empopacity="0.30196078"
       color="#0099e5"
       opacity="0.14901961"
       empspacing="5"
       enabled="true"
       visible="false" /></sodipodi:namedview><defs
     id="defs1"><linearGradient
       id="linearGradient194"><stop
         style="stop-color:#fdf844;stop-opacity:1;"
         offset="0.15175097"
         id="stop207" /><stop
         style="stop-color:#44fdac;stop-opacity:1;"
         offset="0.31128404"
         id="stop208" /><stop
         style="stop-color:#94c4c5;stop-opacity:1;"
         offset="0.48054475"
         id="stop209" /><stop
         style="stop-color:#7d75d6;stop-opacity:1;"
         offset="0.72568095"
         id="stop210" /><stop
         style="stop-color:#fd448c;stop-opacity:1;"
         offset="0.95525295"
         id="stop211" /></linearGradient><linearGradient
       id="linearGradient194-1"><stop
         style="stop-color:#fdf844;stop-opacity:1;"
         offset="0.15175097"
         id="stop194" /><stop
         style="stop-color:#44fdac;stop-opacity:1;"
         offset="0.30739298"
         id="stop195" /><stop
         style="stop-color:#94c4c5;stop-opacity:1;"
         offset="0.46498054"
         id="stop197" /><stop
         style="stop-color:#7d75d6;stop-opacity:1;"
         offset="0.57782102"
         id="stop198" /><stop
         style="stop-color:#fd448c;stop-opacity:1;"
         offset="0.68677044"
         id="stop196" /><stop
         style="stop-color:#fd4444;stop-opacity:1;"
         offset="0.85797668"
         id="stop212" /></linearGradient><linearGradient
       id="swatch107"
       inkscape:swatch="solid"><stop
         style="stop-color:#000000;stop-opacity:1;"
         offset="0"
         id="stop107" /></linearGradient><linearGradient
       id="linearGradient15"
       inkscape:collect="always"><stop
         style="stop-color:#fef5c7;stop-opacity:1;"
         offset="0.29571983"
         id="stop14" /><stop
         style="stop-color:#fede5d;stop-opacity:1;"
         offset="1"
         id="stop15" /></linearGradient><linearGradient
       id="linearGradient6"
       inkscape:collect="always"><stop
         style="stop-color:#fef5c7;stop-opacity:1;"
         offset="0.20622568"
         id="stop5" /><stop
         style="stop-color:#fede5d;stop-opacity:1;"
         offset="1"
         id="stop6" /></linearGradient><linearGradient
       id="linearGradient12"
       inkscape:collect="always"><stop
         style="stop-color:#fede5d;stop-opacity:1;"
         offset="0"
         id="stop13" /><stop
         style="stop-color:#fede5d;stop-opacity:1;"
         offset="0.0603015"
         id="stop11" /><stop
         style="stop-color:#fef5c7;stop-opacity:1;"
         offset="0.28140703"
         id="stop12" /></linearGradient><linearGradient
       id="linearGradient8"
       inkscape:collect="always"><stop
         style="stop-color:#fef5c7;stop-opacity:1;"
         offset="0.37354085"
         id="stop10" /><stop
         style="stop-color:#fede5d;stop-opacity:1;"
         offset="1"
         id="stop9" /></linearGradient><linearGradient
       id="linearGradient7"
       inkscape:collect="always"><stop
         style="stop-color:#fdc056;stop-opacity:1;"
         offset="0.43718594"
         id="stop7" /><stop
         style="stop-color:#fed450;stop-opacity:1;"
         offset="0.8492462"
         id="stop8" /></linearGradient><linearGradient
       id="linearGradient4"
       inkscape:collect="always"><stop
         style="stop-color:#d9da51;stop-opacity:1;"
         offset="0"
         id="stop3" /><stop
         style="stop-color:#29da2d;stop-opacity:1;"
         offset="0.69849247"
         id="stop4" /></linearGradient><linearGradient
       id="linearGradient1"
       inkscape:collect="always"><stop
         style="stop-color:#b0baee;stop-opacity:1;"
         offset="0"
         id="stop1" /><stop
         style="stop-color:#ffffff;stop-opacity:1;"
         offset="0.67336684"
         id="stop2" /></linearGradient><radialGradient
       inkscape:collect="always"
       xlink:href="#linearGradient1"
       id="radialGradient2"
       cx="98.417999"
       cy="153.55415"
       fx="98.417999"
       fy="153.55415"
       r="2.5751858"
       gradientUnits="userSpaceOnUse" /><radialGradient
       inkscape:collect="always"
       xlink:href="#linearGradient4"
       id="radialGradient3"
       gradientUnits="userSpaceOnUse"
       cx="98.417999"
       cy="153.55415"
       fx="98.417999"
       fy="153.55415"
       r="2.5751858"
       gradientTransform="translate(8.3623144)" /><radialGradient
       inkscape:collect="always"
       xlink:href="#linearGradient7"
       id="radialGradient8"
       cx="112.8679"
       cy="143.49986"
       fx="112.8679"
       fy="143.49986"
       r="2.4287972"
       gradientTransform="matrix(1,0,0,0.96019684,0,5.7117485)"
       gradientUnits="userSpaceOnUse" /><radialGradient
       inkscape:collect="always"
       xlink:href="#linearGradient12"
       id="radialGradient10"
       cx="118.97384"
       cy="153.50346"
       fx="118.97384"
       fy="153.50346"
       r="2.908849"
       gradientTransform="matrix(1,0,0,0.95503664,0,6.9020307)"
       gradientUnits="userSpaceOnUse" /><radialGradient
       inkscape:collect="always"
       xlink:href="#linearGradient15"
       id="radialGradient4"
       cx="112.72742"
       cy="144.01718"
       fx="112.72742"
       fy="144.01718"
       r="3.2828033"
       gradientUnits="userSpaceOnUse" /><radialGradient
       inkscape:collect="always"
       xlink:href="#linearGradient6"
       id="radialGradient4-7"
       cx="112.72742"
       cy="144.01718"
       fx="112.72742"
       fy="144.01718"
       r="3.2828033"
       gradientUnits="userSpaceOnUse" /><radialGradient
       inkscape:collect="always"
       xlink:href="#linearGradient8"
       id="radialGradient4-7-1"
       cx="112.72742"
       cy="144.01718"
       fx="112.72742"
       fy="144.01718"
       r="3.2828033"
       gradientUnits="userSpaceOnUse" /><linearGradient
       inkscape:collect="always"
       xlink:href="#linearGradient194-1"
       id="linearGradient195"
       x1="109.69255"
       y1="144.26543"
       x2="116.2588"
       y2="144.26543"
       gradientUnits="userSpaceOnUse" /><linearGradient
       inkscape:collect="always"
       xlink:href="#linearGradient6"
       id="linearGradient200"
       x1="109.59308"
       y1="144.26543"
       x2="116.35828"
       y2="144.26543"
       gradientUnits="userSpaceOnUse" /><linearGradient
       inkscape:collect="always"
       xlink:href="#linearGradient6"
       id="linearGradient213"
       gradientUnits="userSpaceOnUse"
       x1="109.59308"
       y1="144.26543"
       x2="116.35828"
       y2="144.26543" /><linearGradient
       inkscape:collect="always"
       xlink:href="#linearGradient6"
       id="linearGradient214"
       gradientUnits="userSpaceOnUse"
       x1="109.59308"
       y1="144.26543"
       x2="116.35828"
       y2="144.26543" /><linearGradient
       inkscape:collect="always"
       xlink:href="#linearGradient6"
       id="linearGradient216"
       gradientUnits="userSpaceOnUse"
       x1="109.59308"
       y1="144.26543"
       x2="116.35828"
       y2="144.26543" /><linearGradient
       inkscape:collect="always"
       xlink:href="#linearGradient6"
       id="linearGradient217"
       gradientUnits="userSpaceOnUse"
       x1="109.59308"
       y1="144.26543"
       x2="116.35828"
       y2="144.26543" /><linearGradient
       inkscape:collect="always"
       xlink:href="#linearGradient6"
       id="linearGradient218"
       gradientUnits="userSpaceOnUse"
       x1="109.59308"
       y1="144.26543"
       x2="116.35828"
       y2="144.26543" /><linearGradient
       inkscape:collect="always"
       xlink:href="#linearGradient6"
       id="linearGradient219"
       gradientUnits="userSpaceOnUse"
       x1="109.59308"
       y1="144.26543"
       x2="116.35828"
       y2="144.26543" /><linearGradient
       inkscape:collect="always"
       xlink:href="#linearGradient6"
       id="linearGradient220"
       gradientUnits="userSpaceOnUse"
       x1="109.59308"
       y1="144.26543"
       x2="116.35828"
       y2="144.26543" /></defs><g
     inkscape:label="Layer 1"
     inkscape:groupmode="layer"
     id="layer1"><g
       id="g1"
       transform="translate(7.1437482,-22.225002)"
       style="display:inline"
       inkscape:label="Cards"><g
         inkscape:label="Common"
         id="layer1-8"
         transform="matrix(25.22327,0,0,25.22327,-2422.1067,-3782.9804)"
         style="display:none"
         sodipodi:insensitive="true"><circle
           style="fill:url(#radialGradient2);fill-opacity:0.942424;stroke:#686c75;stroke-width:0.188119;stroke-linecap:round;stroke-linejoin:round;stroke-opacity:1"
           id="path1"
           cx="98.417999"
           cy="153.55415"
           r="2.4811263" /><path
           d="m 98.449648,151.66147 q 0.683448,0 1.103485,0.3797 0.232562,0.20883 0.232562,0.38681 0,0.11391 -0.08543,0.20409 -0.104416,0.10916 -0.246801,0.10916 -0.121027,0 -0.19222,-0.0783 -0.0071,-0.007 -0.05933,-0.0736 -0.275278,-0.36308 -0.740403,-0.36308 -0.367828,0 -0.633614,0.24917 -0.379694,0.35359 -0.379694,1.04416 0,0.49835 0.225444,0.84244 0.282397,0.42953 0.794983,0.42953 0.503094,0 0.854311,-0.44614 0.08069,-0.10204 0.218324,-0.10204 0.137639,0 0.237309,0.0925 0.104415,0.0949 0.104415,0.23256 0,0.14713 -0.137639,0.29901 -0.460378,0.50784 -1.274347,0.50784 -0.821087,0 -1.30757,-0.56717 -0.424782,-0.4936 -0.424782,-1.28621 0,-0.85905 0.503094,-1.38113 0.460379,-0.47937 1.207901,-0.47937 z"
           id="text1"
           style="font-weight:bold;font-size:4.86008px;font-family:'UD Digi Kyokasho NK';-inkscape-font-specification:'UD Digi Kyokasho NK, Bold';fill:#464646;fill-opacity:1;stroke:#686c75;stroke-width:0.108456;stroke-linecap:round;stroke-linejoin:round;stroke-opacity:1"
           aria-label="C" /></g><g
         inkscape:label="U"
         id="g2"
         transform="matrix(25.3242,0,0,25.3242,-2643.634,-3798.2187)"
         style="display:inline"
         sodipodi:insensitive="true"><circle
           style="fill:url(#radialGradient3);fill-opacity:0.942424;stroke:#aeff7b;stroke-width:0.188119;stroke-linecap:round;stroke-linejoin:round;stroke-opacity:1"
           id="circle2"
           cx="106.78031"
           cy="153.55415"
           r="2.4811263" /><path
           d="m 106.08167,152.20517 v 1.72216 q 0,0.85784 0.74764,0.85784 0.74764,0 0.74764,-0.85784 v -1.72216 q 0,-0.10372 0.0778,-0.16855 0.0886,-0.0735 0.22472,-0.0735 0.15342,0 0.23985,0.0864 0.0627,0.0627 0.0627,0.15558 v 1.80211 q 0,0.50563 -0.20744,0.7887 -0.0864,0.11668 -0.23121,0.2312 -0.38246,0.29388 -0.91618,0.29388 -0.60719,0 -1.00478,-0.37166 -0.22472,-0.20744 -0.30035,-0.50131 -0.0475,-0.19015 -0.0475,-0.44081 v -1.80211 q 0,-0.1383 0.12965,-0.20312 0.0799,-0.0389 0.17503,-0.0389 0.11452,0 0.20311,0.0583 0.0994,0.0648 0.0994,0.18367 z"
           id="text2"
           style="font-weight:bold;font-size:4.42534px;font-family:'UD Digi Kyokasho NK';-inkscape-font-specification:'UD Digi Kyokasho NK, Bold';fill:#464646;fill-opacity:1;stroke:#ffffff;stroke-width:0.199;stroke-linecap:round;stroke-linejoin:round;stroke-opacity:1"
           aria-label="U" /></g><g
         id="g4"
         inkscape:label="R"
         transform="matrix(22.385745,0,0,22.385745,-2420.6275,-3215.4752)"
         style="display:none"
         sodipodi:insensitive="true"><path
           sodipodi:type="star"
           style="fill:url(#radialGradient8);fill-opacity:1;stroke:none;stroke-width:0.199;stroke-linecap:round;stroke-linejoin:round;stroke-dasharray:none;stroke-opacity:0.945098"
           id="path5"
           inkscape:flatsided="true"
           sodipodi:sides="5"
           sodipodi:cx="112.89124"
           sodipodi:cy="143.72153"
           sodipodi:r1="2.5549054"
           sodipodi:r2="2.066962"
           sodipodi:arg1="0.91290772"
           sodipodi:arg2="1.5412263"
           inkscape:rounded="0"
           inkscape:randomized="0"
           d="m 114.45343,145.74319 -3.00215,0.0888 -1.01218,-2.82779 2.37661,-1.83646 2.48099,1.69278 z"
           inkscape:transform-center-x="-0.005960345"
           inkscape:transform-center-y="-0.26134788"
           transform="matrix(1.09375,0.03990293,-0.03990293,1.09375,-6.9049092,-13.960272)" /><path
           sodipodi:type="star"
           style="fill:#fdba44;fill-opacity:1;stroke:none;stroke-width:0.199;stroke-linecap:round;stroke-linejoin:round;stroke-dasharray:none;stroke-opacity:0.937255"
           id="path4"
           inkscape:flatsided="false"
           sodipodi:sides="5"
           sodipodi:cx="112.89124"
           sodipodi:cy="144.181"
           sodipodi:r1="3.3888671"
           sodipodi:r2="1.2932833"
           sodipodi:arg1="0.78539816"
           sodipodi:arg2="1.4137167"
           inkscape:rounded="0"
           inkscape:randomized="0"
           d="m 115.28753,146.57729 -2.19397,-1.11893 -1.74083,1.74214 0.38619,-2.43236 -2.19482,-1.11728 2.43265,-0.38435 0.38436,-2.43265 1.11727,2.19482 2.43237,-0.38619 -1.74215,1.74082 z"
           inkscape:transform-center-x="-0.0076891343"
           inkscape:transform-center-y="-0.27600595"
           transform="matrix(0.86357591,0.14421166,-0.14421166,0.86357591,34.127154,6.9067872)" /><path
           d="m 110.27416,147.98519 v 1.17332 q 0,0.10372 -0.0713,0.16854 -0.0886,0.0799 -0.23121,0.0799 -0.18583,0 -0.26578,-0.12533 -0.0346,-0.0519 -0.0346,-0.12316 v -2.49574 q 0,-0.53588 0.53588,-0.53588 h 0.78869 q 0.4689,0 0.76061,0.15342 0.16638,0.0886 0.2809,0.23769 0.17503,0.22472 0.17503,0.52723 0,0.7282 -0.79734,0.86433 l 0.86433,1.05015 q 0.0583,0.0713 0.0583,0.16206 0,0.15126 -0.13397,0.22689 -0.0994,0.0562 -0.2096,0.0562 -0.17719,0 -0.28739,-0.15342 l -0.90106,-1.26623 z m 0,-0.48619 h 0.62448 q 0.66337,0 0.66337,-0.44512 0,-0.43217 -0.64176,-0.43217 h -0.55749 q -0.0886,0 -0.0886,0.0886 z"
           id="text2-5"
           style="font-weight:bold;font-size:4.42534px;font-family:'UD Digi Kyokasho NK';-inkscape-font-specification:'UD Digi Kyokasho NK, Bold';display:inline;fill:#464646;fill-opacity:1;stroke:#ffffff;stroke-width:0.199;stroke-linecap:round;stroke-linejoin:round;stroke-opacity:1"
           aria-label="R" /></g><g
         id="g8"
         transform="matrix(15.82012,0,0,16.43273,-1814.6103,-2551.5834)"
         style="display:none;fill:url(#radialGradient10);stroke:#eaa505;stroke-opacity:0.709804"
         inkscape:label="SSR Old"
         sodipodi:insensitive="true"><path
           sodipodi:type="star"
           style="fill:url(#radialGradient4-7);stroke:#eaa505;stroke-width:0.415839;stroke-linecap:round;stroke-linejoin:round;stroke-dasharray:none;stroke-opacity:1"
           id="path4-5-6"
           inkscape:flatsided="false"
           sodipodi:sides="5"
           sodipodi:cx="112.89124"
           sodipodi:cy="144.181"
           sodipodi:r1="3.3888671"
           sodipodi:r2="1.2932833"
           sodipodi:arg1="0.78539816"
           sodipodi:arg2="1.4137167"
           inkscape:rounded="0"
           inkscape:randomized="0"
           d="m 115.28753,146.57729 -2.19397,-1.11893 -1.74083,1.74214 0.38619,-2.43236 -2.19482,-1.11728 2.43265,-0.38435 0.38436,-2.43265 1.11727,2.19482 2.43237,-0.38619 -1.74215,1.74082 z"
           inkscape:transform-center-x="-0.0066586228"
           inkscape:transform-center-y="-0.24319795"
           transform="matrix(0.61601773,0.10464908,-0.10287103,0.62666519,65.734834,58.717775)" /><path
           sodipodi:type="star"
           style="fill:url(#radialGradient4-7-1);stroke:#eaa505;stroke-width:0.415839;stroke-linecap:round;stroke-linejoin:round;stroke-dasharray:none;stroke-opacity:1"
           id="path4-5-6-1"
           inkscape:flatsided="false"
           sodipodi:sides="5"
           sodipodi:cx="112.89124"
           sodipodi:cy="144.181"
           sodipodi:r1="3.3888671"
           sodipodi:r2="1.2932833"
           sodipodi:arg1="0.78539816"
           sodipodi:arg2="1.4137167"
           inkscape:rounded="0"
           inkscape:randomized="0"
           d="m 115.28753,146.57729 -2.19397,-1.11893 -1.74083,1.74214 0.38619,-2.43236 -2.19482,-1.11728 2.43265,-0.38435 0.38436,-2.43265 1.11727,2.19482 2.43237,-0.38619 -1.74215,1.74082 z"
           inkscape:transform-center-x="-0.0063652876"
           inkscape:transform-center-y="-0.24356506"
           transform="matrix(0.58877944,0.10480761,-0.09832241,0.62761448,64.351212,58.553558)" /><path
           sodipodi:type="star"
           style="fill:url(#radialGradient4);stroke:#eaa505;stroke-width:0.378234;stroke-linecap:round;stroke-linejoin:round;stroke-dasharray:none;stroke-opacity:1"
           id="path4-5"
           inkscape:flatsided="false"
           sodipodi:sides="5"
           sodipodi:cx="112.89124"
           sodipodi:cy="144.181"
           sodipodi:r1="3.3888671"
           sodipodi:r2="1.2932833"
           sodipodi:arg1="0.78539816"
           sodipodi:arg2="1.4137167"
           inkscape:rounded="0"
           inkscape:randomized="0"
           d="m 115.28753,146.57729 -2.19397,-1.11893 -1.74083,1.74214 0.38619,-2.43236 -2.19482,-1.11728 2.43265,-0.38435 0.38436,-2.43265 1.11727,2.19482 2.43237,-0.38619 -1.74215,1.74082 z"
           inkscape:transform-center-x="-0.0070757809"
           inkscape:transform-center-y="-0.25398893"
           transform="matrix(0.79468944,0.13270806,-0.13270806,0.79468944,47.914898,31.536814)" /><path
           d="m 114.48588,162.95398 q 0.26077,0 0.46727,0.11781 0.19591,0.11252 0.19591,0.23959 0,0.0635 -0.0477,0.1112 -0.0543,0.0543 -0.12972,0.0543 -0.0675,0 -0.13899,-0.0675 -0.15487,-0.14693 -0.34814,-0.14693 -0.15355,0 -0.24885,0.0529 -0.10987,0.0609 -0.10987,0.17871 0,0.10457 0.0993,0.17473 0.0741,0.0529 0.35343,0.13634 0.36269,0.10722 0.49507,0.21312 0.19723,0.15884 0.19723,0.4077 0,0.29121 -0.23297,0.45535 -0.21047,0.14694 -0.5467,0.14694 -0.31769,0 -0.55993,-0.15355 -0.229,-0.14561 -0.229,-0.28328 0,-0.0569 0.0371,-0.10192 0.0516,-0.0649 0.13104,-0.0649 0.0569,0 0.10458,0.0357 0.0146,0.0119 0.0569,0.0543 0.19988,0.19591 0.45932,0.19591 0.17341,0 0.28063,-0.0649 0.11649,-0.0688 0.11649,-0.19458 0,-0.1284 -0.12179,-0.2065 -0.0821,-0.0516 -0.36931,-0.14164 -0.30445,-0.0953 -0.45006,-0.19723 -0.184,-0.12972 -0.184,-0.38917 0,-0.21047 0.14958,-0.36137 0.19856,-0.20121 0.57317,-0.20121 z m 1.84922,0 q 0.26077,0 0.46727,0.11781 0.19591,0.11252 0.19591,0.23959 0,0.0635 -0.0476,0.1112 -0.0543,0.0543 -0.12973,0.0543 -0.0675,0 -0.13899,-0.0675 -0.15487,-0.14693 -0.34813,-0.14693 -0.15355,0 -0.24886,0.0529 -0.10987,0.0609 -0.10987,0.17871 0,0.10457 0.0993,0.17473 0.0741,0.0529 0.35343,0.13634 0.3627,0.10722 0.49507,0.21312 0.19723,0.15884 0.19723,0.4077 0,0.29121 -0.23297,0.45535 -0.21047,0.14694 -0.54669,0.14694 -0.31769,0 -0.55993,-0.15355 -0.229,-0.14561 -0.229,-0.28328 0,-0.0569 0.0371,-0.10192 0.0516,-0.0649 0.13105,-0.0649 0.0569,0 0.10457,0.0357 0.0146,0.0119 0.0569,0.0543 0.19988,0.19591 0.45933,0.19591 0.1734,0 0.28062,-0.0649 0.11649,-0.0688 0.11649,-0.19458 0,-0.1284 -0.12178,-0.2065 -0.0821,-0.0516 -0.36932,-0.14164 -0.30445,-0.0953 -0.45006,-0.19723 -0.18399,-0.12972 -0.18399,-0.38917 0,-0.21047 0.14958,-0.36137 0.19855,-0.20121 0.57316,-0.20121 z m 1.53815,1.18472 v 0.71878 q 0,0.0635 -0.0437,0.10325 -0.0543,0.049 -0.14164,0.049 -0.11383,0 -0.16281,-0.0768 -0.0212,-0.0318 -0.0212,-0.0754 v -1.52889 q 0,-0.32828 0.32828,-0.32828 h 0.48315 q 0.28725,0 0.46595,0.094 0.10193,0.0543 0.17208,0.14561 0.10722,0.13767 0.10722,0.32299 0,0.44609 -0.48845,0.52948 l 0.52949,0.64333 q 0.0357,0.0437 0.0357,0.0993 0,0.0927 -0.0821,0.13899 -0.0609,0.0344 -0.1284,0.0344 -0.10855,0 -0.17606,-0.094 l -0.55198,-0.7757 z m 0,-0.29783 h 0.38256 q 0.40638,0 0.40638,-0.27269 0,-0.26474 -0.39315,-0.26474 h -0.34151 q -0.0543,0 -0.0543,0.0543 z"
           id="text2-5-8"
           style="font-weight:bold;font-size:2.71096px;font-family:'UD Digi Kyokasho NK';-inkscape-font-specification:'UD Digi Kyokasho NK, Bold';fill:#464646;fill-opacity:0.942424;stroke:#ffffff;stroke-width:0.121907;stroke-linecap:round;stroke-linejoin:round;stroke-opacity:0.980392"
           transform="scale(1.0191778,0.98118306)"
           aria-label="SSR" /></g><g
         id="g20"
         inkscape:label="R"
         transform="matrix(22.385745,0,0,22.385745,-2420.6275,-3215.4752)"
         style="display:none"><path
           sodipodi:type="star"
           style="fill:#000059;fill-opacity:1;stroke:#c1ab3f;stroke-width:0.199;stroke-linecap:round;stroke-linejoin:round;stroke-dasharray:none;stroke-opacity:1"
           id="path18"
           inkscape:flatsided="true"
           sodipodi:sides="6"
           sodipodi:cx="112.89124"
           sodipodi:cy="143.72153"
           sodipodi:r1="2.5549054"
           sodipodi:r2="2.066962"
           sodipodi:arg1="0.91290772"
           sodipodi:arg2="1.4365065"
           inkscape:rounded="0"
           inkscape:randomized="0"
           d="m 114.45343,145.74319 -2.5319,0.34206 -1.56219,-2.02166 0.96971,-2.36372 2.53191,-0.34207 1.56219,2.02166 z"
           inkscape:transform-center-x="-0.030770574"
           inkscape:transform-center-y="-0.25954715"
           transform="matrix(1.0850204,0.14356903,-0.14356903,1.0850204,9.0039661,-24.338891)" /><path
           sodipodi:type="star"
           style="fill:url(#linearGradient195);stroke:url(#linearGradient200);stroke-width:0.199;stroke-linecap:round;stroke-linejoin:round;stroke-dasharray:none"
           id="path19"
           inkscape:flatsided="false"
           sodipodi:sides="7"
           sodipodi:cx="112.89124"
           sodipodi:cy="144.181"
           sodipodi:r1="3.3888671"
           sodipodi:r2="1.2932833"
           sodipodi:arg1="0.78539816"
           sodipodi:arg2="1.2341971"
           inkscape:rounded="0"
           inkscape:randomized="0"
           d="m 115.28753,146.57729 -1.96914,-1.17558 -0.80658,2.14685 -0.30864,-2.27251 -2.18136,0.70794 1.58428,-1.65819 -1.91354,-1.26407 2.2842,0.20478 -0.20478,-2.28421 1.26407,1.91355 1.65819,-1.58429 -0.70793,2.18137 2.2725,0.30864 -2.14685,0.80657 z"
           inkscape:transform-center-x="-0.0076891343"
           inkscape:transform-center-y="-0.27600595"
           transform="matrix(0.86357591,0.14421166,-0.14421166,0.86357591,34.011047,6.9067872)" /><text
           xml:space="preserve"
           style="font-weight:bold;font-size:2.31328px;font-family:'UD Digi Kyokasho NK';-inkscape-font-specification:'UD Digi Kyokasho NK, Bold';text-align:start;writing-mode:lr-tb;direction:ltr;text-anchor:start;fill:#464646;fill-opacity:1;stroke:#ffffff;stroke-width:0.105101;stroke-linecap:round;stroke-linejoin:round;stroke-dasharray:none;stroke-opacity:1"
           x="108.68647"
           y="148.20184"
           id="text20"><tspan
             sodipodi:role="line"
             id="tspan20"
             style="stroke-width:0.105101"
             x="108.68647"
             y="148.20184">S</tspan></text><text
           xml:space="preserve"
           style="font-weight:bold;font-size:2.31328px;font-family:'UD Digi Kyokasho NK';-inkscape-font-specification:'UD Digi Kyokasho NK, Bold';text-align:start;writing-mode:lr-tb;direction:ltr;text-anchor:start;display:inline;fill:#464646;fill-opacity:1;stroke:#ffffff;stroke-width:0.105101;stroke-linecap:round;stroke-linejoin:round;stroke-dasharray:none;stroke-opacity:1"
           x="111.12389"
           y="149.05884"
           id="text20-9-5"><tspan
             sodipodi:role="line"
             id="tspan20-3-0"
             style="stroke-width:0.105101"
             x="111.12389"
             y="149.05884">R</tspan></text><text
           xml:space="preserve"
           style="font-weight:bold;font-size:2.31328px;font-family:'UD Digi Kyokasho NK';-inkscape-font-specification:'UD Digi Kyokasho NK, Bold';text-align:start;writing-mode:lr-tb;direction:ltr;text-anchor:start;display:inline;fill:#464646;fill-opacity:1;stroke:#ffffff;stroke-width:0.105101;stroke-linecap:round;stroke-linejoin:round;stroke-dasharray:none;stroke-opacity:1"
           x="109.8656"
           y="148.65158"
           id="text20-9"><tspan
             sodipodi:role="line"
             id="tspan20-3"
             style="stroke-width:0.105101"
             x="109.8656"
             y="148.65158">S</tspan></text><path
           sodipodi:type="star"
           style="display:inline;fill:#ffffff;fill-opacity:1;stroke:url(#linearGradient213);stroke-width:0.199;stroke-linecap:round;stroke-linejoin:round;stroke-dasharray:none;stroke-opacity:1"
           id="path19-0"
           inkscape:flatsided="false"
           sodipodi:sides="7"
           sodipodi:cx="112.89124"
           sodipodi:cy="144.181"
           sodipodi:r1="3.3888671"
           sodipodi:r2="1.2932833"
           sodipodi:arg1="0.78539816"
           sodipodi:arg2="1.2341971"
           inkscape:rounded="0"
           inkscape:randomized="0"
           d="m 115.28753,146.57729 -1.96914,-1.17558 -0.80658,2.14685 -0.30864,-2.27251 -2.18136,0.70794 1.58428,-1.65819 -1.91354,-1.26407 2.2842,0.20478 -0.20478,-2.28421 1.26407,1.91355 1.65819,-1.58429 -0.70793,2.18137 2.2725,0.30864 -2.14685,0.80657 z"
           inkscape:transform-center-x="-0.00049432161"
           inkscape:transform-center-y="-0.014860038"
           transform="matrix(0.04645103,0.00775703,-0.00775703,0.04645103,107.13459,138.26415)" /><path
           sodipodi:type="star"
           style="display:inline;fill:#ffffff;fill-opacity:1;stroke:url(#linearGradient214);stroke-width:0.199;stroke-linecap:round;stroke-linejoin:round;stroke-dasharray:none;stroke-opacity:1"
           id="path19-0-4"
           inkscape:flatsided="false"
           sodipodi:sides="7"
           sodipodi:cx="112.89124"
           sodipodi:cy="144.181"
           sodipodi:r1="3.3888671"
           sodipodi:r2="1.2932833"
           sodipodi:arg1="0.78539816"
           sodipodi:arg2="1.2341971"
           inkscape:rounded="0"
           inkscape:randomized="0"
           d="m 115.28753,146.57729 -1.96914,-1.17558 -0.80658,2.14685 -0.30864,-2.27251 -2.18136,0.70794 1.58428,-1.65819 -1.91354,-1.26407 2.2842,0.20478 -0.20478,-2.28421 1.26407,1.91355 1.65819,-1.58429 -0.70793,2.18137 2.2725,0.30864 -2.14685,0.80657 z"
           inkscape:transform-center-x="-0.00049432161"
           inkscape:transform-center-y="-0.014860038"
           transform="matrix(0.04645103,0.00775703,-0.00775703,0.04645103,108.45424,139.36652)" /><path
           sodipodi:type="star"
           style="display:inline;fill:#ffffff;fill-opacity:1;stroke:url(#linearGradient216);stroke-width:0.199;stroke-linecap:round;stroke-linejoin:round;stroke-dasharray:none;stroke-opacity:1"
           id="path19-0-1"
           inkscape:flatsided="false"
           sodipodi:sides="7"
           sodipodi:cx="112.89124"
           sodipodi:cy="144.181"
           sodipodi:r1="3.3888671"
           sodipodi:r2="1.2932833"
           sodipodi:arg1="0.78539816"
           sodipodi:arg2="1.2341971"
           inkscape:rounded="0"
           inkscape:randomized="0"
           d="m 115.28753,146.57729 -1.96914,-1.17558 -0.80658,2.14685 -0.30864,-2.27251 -2.18136,0.70794 1.58428,-1.65819 -1.91354,-1.26407 2.2842,0.20478 -0.20478,-2.28421 1.26407,1.91355 1.65819,-1.58429 -0.70793,2.18137 2.2725,0.30864 -2.14685,0.80657 z"
           inkscape:transform-center-x="-0.00049432161"
           inkscape:transform-center-y="-0.014860038"
           transform="matrix(0.04645103,0.00775703,-0.00775703,0.04645103,105.45929,138.44876)" /><path
           sodipodi:type="star"
           style="display:inline;fill:#ffffff;fill-opacity:1;stroke:url(#linearGradient217);stroke-width:0.199;stroke-linecap:round;stroke-linejoin:round;stroke-dasharray:none;stroke-opacity:1"
           id="path19-0-1-9"
           inkscape:flatsided="false"
           sodipodi:sides="7"
           sodipodi:cx="112.89124"
           sodipodi:cy="144.181"
           sodipodi:r1="3.3888671"
           sodipodi:r2="1.2932833"
           sodipodi:arg1="0.78539816"
           sodipodi:arg2="1.2341971"
           inkscape:rounded="0"
           inkscape:randomized="0"
           d="m 115.28753,146.57729 -1.96914,-1.17558 -0.80658,2.14685 -0.30864,-2.27251 -2.18136,0.70794 1.58428,-1.65819 -1.91354,-1.26407 2.2842,0.20478 -0.20478,-2.28421 1.26407,1.91355 1.65819,-1.58429 -0.70793,2.18137 2.2725,0.30864 -2.14685,0.80657 z"
           inkscape:transform-center-x="-0.00049432161"
           inkscape:transform-center-y="-0.014860038"
           transform="matrix(0.04645103,0.00775703,-0.00775703,0.04645103,104.5427,139.89901)" /><path
           sodipodi:type="star"
           style="display:inline;fill:#ffffff;fill-opacity:1;stroke:url(#linearGradient218);stroke-width:0.199;stroke-linecap:round;stroke-linejoin:round;stroke-dasharray:none;stroke-opacity:1"
           id="path19-0-1-6"
           inkscape:flatsided="false"
           sodipodi:sides="7"
           sodipodi:cx="112.89124"
           sodipodi:cy="144.181"
           sodipodi:r1="3.3888671"
           sodipodi:r2="1.2932833"
           sodipodi:arg1="0.78539816"
           sodipodi:arg2="1.2341971"
           inkscape:rounded="0"
           inkscape:randomized="0"
           d="m 115.28753,146.57729 -1.96914,-1.17558 -0.80658,2.14685 -0.30864,-2.27251 -2.18136,0.70794 1.58428,-1.65819 -1.91354,-1.26407 2.2842,0.20478 -0.20478,-2.28421 1.26407,1.91355 1.65819,-1.58429 -0.70793,2.18137 2.2725,0.30864 -2.14685,0.80657 z"
           inkscape:transform-center-x="-0.00049432161"
           inkscape:transform-center-y="-0.014860038"
           transform="matrix(0.04645103,0.00775703,-0.00775703,0.04645103,105.32713,141.52222)" /><path
           sodipodi:type="star"
           style="display:inline;fill:#ffffff;fill-opacity:1;stroke:url(#linearGradient219);stroke-width:0.199;stroke-linecap:round;stroke-linejoin:round;stroke-dasharray:none;stroke-opacity:1"
           id="path19-0-1-0"
           inkscape:flatsided="false"
           sodipodi:sides="7"
           sodipodi:cx="112.89124"
           sodipodi:cy="144.181"
           sodipodi:r1="3.3888671"
           sodipodi:r2="1.2932833"
           sodipodi:arg1="0.78539816"
           sodipodi:arg2="1.2341971"
           inkscape:rounded="0"
           inkscape:randomized="0"
           d="m 115.28753,146.57729 -1.96914,-1.17558 -0.80658,2.14685 -0.30864,-2.27251 -2.18136,0.70794 1.58428,-1.65819 -1.91354,-1.26407 2.2842,0.20478 -0.20478,-2.28421 1.26407,1.91355 1.65819,-1.58429 -0.70793,2.18137 2.2725,0.30864 -2.14685,0.80657 z"
           inkscape:transform-center-x="-0.00049432161"
           inkscape:transform-center-y="-0.014860038"
           transform="matrix(0.04645103,0.00775703,-0.00775703,0.04645103,106.87601,142.08875)" /><path
           sodipodi:type="star"
           style="display:inline;fill:#ffffff;fill-opacity:1;stroke:url(#linearGradient220);stroke-width:0.199;stroke-linecap:round;stroke-linejoin:round;stroke-dasharray:none;stroke-opacity:1"
           id="path19-0-1-7"
           inkscape:flatsided="false"
           sodipodi:sides="7"
           sodipodi:cx="112.89124"
           sodipodi:cy="144.181"
           sodipodi:r1="3.3888671"
           sodipodi:r2="1.2932833"
           sodipodi:arg1="0.78539816"
           sodipodi:arg2="1.2341971"
           inkscape:rounded="0"
           inkscape:randomized="0"
           d="m 115.28753,146.57729 -1.96914,-1.17558 -0.80658,2.14685 -0.30864,-2.27251 -2.18136,0.70794 1.58428,-1.65819 -1.91354,-1.26407 2.2842,0.20478 -0.20478,-2.28421 1.26407,1.91355 1.65819,-1.58429 -0.70793,2.18137 2.2725,0.30864 -2.14685,0.80657 z"
           inkscape:transform-center-x="-0.00049432161"
           inkscape:transform-center-y="-0.014860038"
           transform="matrix(0.04645103,0.00775703,-0.00775703,0.04645103,108.749,140.86646)" /></g></g></g></svg>
