<?xml version="1.0" encoding="UTF-8" standalone="no"?>
<!-- Created with Inkscape (http://www.inkscape.org/) -->

<svg
   version="1.1"
   id="svg1"
   width="53.285717"
   height="51.379166"
   viewBox="0 0 53.285716 51.379167"
   sodipodi:docname="lacking.svg"
   xml:space="preserve"
   inkscape:version="1.4.2 (ebf0e94, 2025-05-08)"
   inkscape:export-filename="lacking1.png"
   inkscape:export-xdpi="239.16309"
   inkscape:export-ydpi="239.16309"
   xmlns:inkscape="http://www.inkscape.org/namespaces/inkscape"
   xmlns:sodipodi="http://sodipodi.sourceforge.net/DTD/sodipodi-0.dtd"
   xmlns:xlink="http://www.w3.org/1999/xlink"
   xmlns="http://www.w3.org/2000/svg"
   xmlns:svg="http://www.w3.org/2000/svg"><defs
     id="defs1"><linearGradient
       id="swatch3"
       inkscape:swatch="solid"><stop
         style="stop-color:#fdda57;stop-opacity:1;"
         offset="0"
         id="stop3" /></linearGradient><linearGradient
       id="swatch2"
       inkscape:swatch="solid"><stop
         style="stop-color:#fff8df;stop-opacity:1;"
         offset="0"
         id="stop2" /></linearGradient><linearGradient
       id="swatch1"
       inkscape:swatch="solid"><stop
         style="stop-color:#fdda57;stop-opacity:1;"
         offset="0"
         id="stop1" /></linearGradient><linearGradient
       inkscape:collect="always"
       xlink:href="#swatch1"
       id="linearGradient2"
       x1="12.076824"
       y1="25.294235"
       x2="49.514977"
       y2="25.294235"
       gradientUnits="userSpaceOnUse"
       gradientTransform="matrix(1,0,0,1.1219512,-3.959639,0.11747292)" /><linearGradient
       inkscape:collect="always"
       xlink:href="#swatch3"
       id="linearGradient19"
       gradientUnits="userSpaceOnUse"
       gradientTransform="matrix(1,0,0,1.1219512,-3.959639,0.11747292)"
       x1="12.076824"
       y1="25.294235"
       x2="49.514977"
       y2="25.294235" /></defs><sodipodi:namedview
     id="namedview1"
     pagecolor="#ffffff"
     bordercolor="#000000"
     borderopacity="0.25"
     inkscape:showpageshadow="2"
     inkscape:pageopacity="0.0"
     inkscape:pagecheckerboard="0"
     inkscape:deskcolor="#d1d1d1"
     inkscape:zoom="5.6568542"
     inkscape:cx="49.055533"
     inkscape:cy="18.119611"
     inkscape:window-width="1809"
     inkscape:window-height="822"
     inkscape:window-x="254"
     inkscape:window-y="32"
     inkscape:window-maximized="0"
     inkscape:current-layer="svg1" /><path
     id="path1"
     style="display:inline;fill:url(#linearGradient19);stroke:#e8a005;stroke-width:1.968;stroke-dasharray:none;stroke-opacity:1"
     d="m 26.836657,10.495683 c -9.941125,0 -17.9999993,8.058875 -17.9999993,18 0,9.941125 8.0588743,18 17.9999993,18 9.941125,0 18,-8.058875 18,-18 0,-9.941125 -8.058875,-18 -18,-18 z m 0.06641,3.06836 c 8.284271,0 15,6.715729 15,15 0,8.284271 -6.715729,15 -15,15 -8.284271,0 -15,-6.715729 -15,-15 0,-8.284271 6.715729,-15 15,-15 z"
     sodipodi:nodetypes="ssssssssss" /><path
     sodipodi:type="star"
     style="display:inline;fill:#fbd650;fill-opacity:1;stroke:#e8a005;stroke-width:0.824398;stroke-dasharray:none;stroke-opacity:1"
     id="path3"
     inkscape:flatsided="false"
     sodipodi:sides="5"
     sodipodi:cx="12.21101"
     sodipodi:cy="5.9042249"
     sodipodi:r1="17.857904"
     sodipodi:r2="6.8150592"
     sodipodi:arg1="0.98426994"
     sodipodi:arg2="1.6362809"
     inkscape:rounded="0"
     inkscape:randomized="0"
     d="M 22.094848,20.777506 11.765048,12.704677 1.1199525,19.90041 5.6055857,7.5815448 -4.5274782,-0.31893862 8.5745956,0.14041343 12.957113,-11.938087 16.569007,0.66467362 29.410615,1.1002334 18.540814,8.4298156 Z"
     inkscape:transform-center-x="0.078635398"
     inkscape:transform-center-y="-2.5227042"
     transform="matrix(1.4583606,-0.05714898,0.05789315,1.4773508,8.4790847,20.352795)" /><path
     style="display:inline;fill:#fff8e0;fill-opacity:1;stroke:none;stroke-width:0.347717;stroke-linejoin:round;stroke-opacity:0.8"
     d="m 26.188072,26.243683 0.511631,-22.3334998 5.53876,17.0386058 17.401253,-0.0409 z"
     id="path15"
     sodipodi:nodetypes="ccccc" /><path
     style="display:inline;fill:#fff8e0;fill-opacity:1;stroke:none;stroke-width:0.341379;stroke-linejoin:round;stroke-opacity:0.8"
     d="M 26.189892,26.329349 40.76589,48.230133 35.281768,31.477114 Z"
     id="path16"
     sodipodi:nodetypes="cccc" /><path
     style="display:inline;fill:#fff8e0;fill-opacity:1;stroke:none;stroke-width:0.344112;stroke-linecap:round;stroke-linejoin:round;stroke-opacity:0.8"
     d="M 26.14329,26.240275 3.6953594,20.735794 21.417334,20.657995 Z"
     id="path17"
     sodipodi:nodetypes="cccc" /><path
     id="path19"
     style="display:inline;fill:url(#linearGradient2);stroke:none;stroke-width:0.968;stroke-dasharray:none;stroke-opacity:0.8"
     d="m 26.836657,10.495683 c -9.941125,0 -17.9999993,8.058875 -17.9999993,18 0,9.941125 8.0588743,18 17.9999993,18 9.941125,0 18,-8.058875 18,-18 0,-9.941125 -8.058875,-18 -18,-18 z m 0.06641,3.06836 c 8.284271,0 15,6.715729 15,15 0,8.284271 -6.715729,15 -15,15 -8.284271,0 -15,-6.715729 -15,-15 0,-8.284271 6.715729,-15 15,-15 z"
     sodipodi:nodetypes="ssssssssss" /><path
     style="display:inline;fill:#ffd84c;fill-opacity:1;stroke:none;stroke-width:0.341379;stroke-linejoin:round;stroke-opacity:0.8"
     d="M 26.14658,26.316398 12.309202,48.149334 26.372364,37.716235 Z"
     id="path2"
     sodipodi:nodetypes="cccc" /></svg>
